<svg width="128" height="42" viewBox="0 0 128 42" fill="none" xmlns="http://www.w3.org/2000/svg">
<path d="M0.64209 41V6.09091H24.983V12.9432H9.07959V20.1023H23.7387V26.9716H9.07959V34.1477H24.983V41H0.64209Z" fill="#1A1A18"/>
<path d="M45.0455 14.8182V20.9545H28.5285V14.8182H45.0455ZM31.9887 8.54545H40.3239V32.767C40.3239 33.2784 40.4035 33.6932 40.5625 34.0114C40.733 34.3182 40.9773 34.5398 41.2955 34.6761C41.6137 34.8011 41.9944 34.8636 42.4375 34.8636C42.7557 34.8636 43.091 34.8352 43.4432 34.7784C43.8069 34.7102 44.0796 34.6534 44.2614 34.608L45.5228 40.625C45.125 40.7386 44.5625 40.8807 43.8353 41.0511C43.1194 41.2216 42.2614 41.3295 41.2614 41.375C39.3069 41.4659 37.6307 41.2386 36.233 40.6932C34.8466 40.1364 33.7841 39.2727 33.0455 38.1023C32.3182 36.9318 31.966 35.4602 31.9887 33.6875V8.54545Z" fill="#1A1A18"/>
<path d="M49.2983 41V14.8182H57.6336V41H49.2983ZM53.4745 11.767C52.304 11.767 51.2983 11.3807 50.4574 10.608C49.6165 9.82386 49.1961 8.88068 49.1961 7.77841C49.1961 6.6875 49.6165 5.75568 50.4574 4.98295C51.2983 4.19886 52.304 3.80682 53.4745 3.80682C54.6563 3.80682 55.662 4.19886 56.4915 4.98295C57.3324 5.75568 57.7529 6.6875 57.7529 7.77841C57.7529 8.88068 57.3324 9.82386 56.4915 10.608C55.662 11.3807 54.6563 11.767 53.4745 11.767Z" fill="#1A1A18"/>
<path d="M63.0071 41V36.2443L75.1435 21.4659V21.2955H63.4333V14.8182H85.081V20.0341L73.831 34.3523V34.5227H85.4901V41H63.0071Z" fill="#1A1A18"/>
<path d="M102.365 41.4943C99.6265 41.4943 97.2628 40.9545 95.2742 39.875C93.2969 38.7841 91.7742 37.233 90.706 35.2216C89.6492 33.1989 89.1208 30.7955 89.1208 28.0114C89.1208 25.3068 89.6549 22.9432 90.7231 20.9205C91.7912 18.8864 93.2969 17.3068 95.2401 16.1818C97.1833 15.0455 99.4731 14.4773 102.109 14.4773C103.973 14.4773 105.678 14.767 107.223 15.3466C108.769 15.9261 110.104 16.7841 111.229 17.9205C112.354 19.0568 113.229 20.4602 113.854 22.1307C114.479 23.7898 114.791 25.6932 114.791 27.8409V29.9205H92.0356V25.0795H107.036C107.024 24.1932 106.814 23.4034 106.405 22.7102C105.996 22.017 105.433 21.4773 104.717 21.0909C104.013 20.6932 103.2 20.4943 102.28 20.4943C101.348 20.4943 100.513 20.7045 99.7742 21.125C99.0356 21.5341 98.4503 22.0966 98.0185 22.8125C97.5867 23.517 97.3594 24.3182 97.3367 25.2159V30.142C97.3367 31.2102 97.5469 32.1477 97.9674 32.9545C98.3878 33.75 98.9844 34.3693 99.7571 34.8125C100.53 35.2557 101.45 35.4773 102.519 35.4773C103.257 35.4773 103.928 35.375 104.53 35.1705C105.132 34.9659 105.649 34.6648 106.081 34.267C106.513 33.8693 106.837 33.3807 107.053 32.8011L114.706 33.0227C114.388 34.7386 113.689 36.233 112.609 37.5057C111.541 38.767 110.138 39.75 108.399 40.4545C106.661 41.1477 104.649 41.4943 102.365 41.4943Z" fill="#1A1A18"/>
<path d="M127.384 6.09091V41H119.048V6.09091H127.384Z" fill="#1A1A18"/>
<path d="M53.5 0L61.7273 12H45.2728L53.5 0Z" fill="#40B6E8"/>
</svg>
